<svg xmlns="http://www.w3.org/2000/svg" xmlns:xlink="http://www.w3.org/1999/xlink" viewBox="0 0 868.71 729.22"><defs><style>.a{fill:none;}.b{clip-path:url(#a);}.c{fill:#211915;}.d{clip-path:url(#b);}.e{clip-path:url(#c);}.f{fill:#e9e44a;}.g{clip-path:url(#d);}.h{clip-path:url(#e);}.i{clip-path:url(#f);}.j{fill:#bebdbb;}.k{clip-path:url(#g);}.l{clip-path:url(#h);}.m{opacity:0.53;}.n{fill:#221d1f;}.o{clip-path:url(#i);}.p{fill:#fff;}.q{fill:#bebdbc;}.r{clip-path:url(#j);}.s{fill:#1a212b;}.t{fill:#d82429;}.u{fill:#d7d5de;}</style><clipPath id="a" transform="translate(-93.35 -63.78)"><path class="a" d="M263.46,717.06v45.07Q233.33,779.35,205,779.35q-38.73,0-67.84-29.11t-29.11-67.39q0-43.49,29-72.14t72.71-28.65q26,0,53.68,13.59v43.94q-29.68-19-56.17-19-24.46,0-42.81,17.21T146.13,678.1q0,26.05,17.21,43.83t42.13,17.78Q230.83,739.71,263.46,717.06Z"/></clipPath><clipPath id="b" transform="translate(-93.35 -63.78)"><rect class="a" x="620.67" y="580.09" width="131.69" height="201.23"/></clipPath><clipPath id="c" transform="translate(-93.35 -63.78)"><rect class="a" x="443.44" y="556.67" width="149.34" height="228.67" transform="translate(1036.21 1342) rotate(180)"/></clipPath><clipPath id="d" transform="translate(-93.35 -63.78)"><rect class="a" x="633.96" y="285.21" width="118.4" height="215.46"/></clipPath><clipPath id="e" transform="translate(-93.35 -63.78)"><path class="a" d="M375.71,83.28a111,111,0,0,0-45.21-9.61h0a110.89,110.89,0,0,0-45.56,9.76h0c-16.68-25.85-46.75-18.76-46.75-18.76h0c15.88,13.32,11,36.46,7.45,47.6h0a127.59,127.59,0,0,0-32.29,85.47h0c0,26.38,16.94,56.35,20.33,96.51h0l21.45-18.59s25.68,17.39,75.36,17.39h0c49.69,0,75.37-17.39,75.37-17.39h0l21.46,18.59c3.39-40.16,20.32-70.13,20.32-96.51h0a127.53,127.53,0,0,0-33-86.24h0c-3.56-11.41-7.83-33.82,7.69-46.83h0a45.08,45.08,0,0,0-9.39-.89h0c-10.2,0-26.48,2.94-37.25,19.5"/></clipPath><clipPath id="f" transform="translate(-93.35 -63.78)"><path class="a" d="M261.23,305.95a27,27,0,0,0,8.25,19.45h0c-.07-.71-.11-1.43-.11-2.16h0c0-11.23,8.8-20.34,19.66-20.34h0c10.85,0,19.65,9.11,19.65,20.34h0c0,.21,0,.42,0,.64h0a27,27,0,0,0,6.81-17.92h0a27.1,27.1,0,0,0-27.11-27.11h0a27.11,27.11,0,0,0-27.11,27.11"/></clipPath><clipPath id="g" transform="translate(-93.35 -63.78)"><path class="a" d="M343.47,305.95a27,27,0,0,0,6.81,17.92h0c0-.21,0-.42,0-.64h0c0-11.23,8.8-20.34,19.66-20.34h0c10.85,0,19.65,9.11,19.65,20.34h0a20.78,20.78,0,0,1-.11,2.16h0a27,27,0,0,0,8.25-19.45h0a27.1,27.1,0,0,0-27.11-27.11h0a27.11,27.11,0,0,0-27.11,27.11"/></clipPath><clipPath id="h" transform="translate(-93.35 -63.78)"><rect class="a" x="221.55" y="204.71" width="59.25" height="66.86"/></clipPath><clipPath id="i" transform="translate(-93.35 -63.78)"><rect class="a" x="379.97" y="204.71" width="59.25" height="66.86"/></clipPath><clipPath id="j" transform="translate(-93.35 -63.78)"><path class="a" d="M303.68,186.94c0,17.88,26.16,42.15,26.16,59.29h0c0-17.13,26.16-41.41,26.16-59.29h0a26.13,26.13,0,0,0-26.16-26h0a26.13,26.13,0,0,0-26.16,26"/></clipPath></defs><title>logo_v32_r</title><g class="b"><rect class="c" y="509.13" width="134.52" height="220.09"/></g><path class="c" d="M269.34,480.13h39.41V617.85q16.31-18.8,30.47-27.29t34.54-8.49q23.78,0,41.11,18.23a61.09,61.09,0,0,1,17.33,43.6V774.14H392.79V655q0-17.67-8.95-28.31T360.17,616q-21.29,0-36.35,16.08t-15.06,39V774.14H269.34Z" transform="translate(-93.35 -63.78)"/><path class="c" d="M793.54,480.13h39.41V669.26l77.22-82h51l-80.61,86.3,81.51,100.57H913.29l-80.34-98.76v98.76H793.54Z" transform="translate(-93.35 -63.78)"/><g class="d"><path class="c" d="M789.34,717.06v45.07q-30.13,17.22-58.44,17.21-38.73,0-67.84-29.11T634,682.86q0-43.49,29-72.14t72.71-28.65q26,0,53.68,13.59v43.94q-29.68-19-56.17-19-24.46,0-42.81,17.21T672,678.1q0,26.05,17.21,43.83t42.13,17.78Q756.72,739.71,789.34,717.06Z" transform="translate(-93.35 -63.78)"/></g><g class="e"><path class="c" d="M668.93,688.29H509.47q5.21,28.77,23.67,42t40.2,13.25q33.52,0,56.17-27.86l28.77,21.74q-32.4,41.91-86.75,41.9-41.68,0-69.76-28.54t-28.09-70.9q0-39.63,28.43-68.74t69.42-29.11q40.31,0,69.08,29.56T668.93,688.29ZM513.55,656.81H627.7q-19-38.5-56.17-38.51Q531,618.3,513.55,656.81Z" transform="translate(-93.35 -63.78)"/></g><path class="c" d="M269.34,298.38h39.41V572.91H269.34V448.56q-29.26,41.91-71.45,41.9-36.29,0-63.06-29.22t-26.76-69.31q0-39.86,26.65-69.31t62.49-29.45q21.32,0,41.28,12.12a85.29,85.29,0,0,1,30.85,31.6Zm5,92.64q0-24.91-18.83-43t-45.16-18.12q-24.73,0-42.77,18.57t-18,43.94q0,24.92,18.61,43.38t44,18.46q26.09,0,44.13-18.35T274.33,391Z" transform="translate(-93.35 -63.78)"/><path class="c" d="M350.23,298.38h39.41V403.7q0,48.7,42.81,48.7,19,0,30.13-13t11.1-35.67V298.38h39V410q0,35.11-22.88,57.76t-58.44,22.65q-36.24,0-58.67-22.65t-22.42-59.12Z" transform="translate(-93.35 -63.78)"/><path class="c" d="M553.82,298.24h39V485.11h-39Z" transform="translate(-93.35 -63.78)"/><path class="f" d="M542.95,236.86A28.77,28.77,0,0,1,552,215.68a29.58,29.58,0,0,1,21.52-8.95,30.13,30.13,0,0,1,0,60.25A29.76,29.76,0,0,1,552,258.15,28.65,28.65,0,0,1,542.95,236.86Z" transform="translate(-93.35 -63.78)"/><path class="c" d="M793.54,191.1h39.41V380.24l77.22-82h51l-80.61,86.3,81.51,100.57H913.29l-80.34-98.76v98.76H793.54Z" transform="translate(-93.35 -63.78)"/><g class="g"><path class="c" d="M789.34,428V473.1q-30.13,17.22-58.44,17.21-38.73,0-67.84-29.11T634,393.83q0-43.49,29-72.14T735.66,293q26,0,53.68,13.59v43.94q-29.68-19-56.17-19-24.46,0-42.81,17.21T672,389.07q0,26.05,17.21,43.83t42.13,17.78Q756.72,450.68,789.34,428Z" transform="translate(-93.35 -63.78)"/></g><g class="h"><path class="f" d="M375.71,83.28a111,111,0,0,0-45.21-9.61h0a110.89,110.89,0,0,0-45.56,9.76h0c-16.68-25.85-46.75-18.76-46.75-18.76h0c15.88,13.32,11,36.46,7.45,47.6h0a127.59,127.59,0,0,0-32.29,85.47h0c0,26.38,16.94,56.35,20.33,96.51h0l21.45-18.59s25.68,17.39,75.36,17.39h0c49.69,0,75.37-17.39,75.37-17.39h0l21.46,18.59c3.39-40.16,20.32-70.13,20.32-96.51h0a127.53,127.53,0,0,0-33-86.24h0c-3.56-11.41-7.83-33.82,7.69-46.83h0a45.08,45.08,0,0,0-9.39-.89h0c-10.2,0-26.48,2.94-37.25,19.5" transform="translate(-93.35 -63.78)"/></g><g class="i"><path class="j" d="M261.23,305.95a27,27,0,0,0,8.25,19.45h0c-.07-.71-.11-1.43-.11-2.16h0c0-11.23,8.8-20.34,19.66-20.34h0c10.85,0,19.65,9.11,19.65,20.34h0c0,.21,0,.42,0,.64h0a27,27,0,0,0,6.81-17.92h0a27.1,27.1,0,0,0-27.11-27.11h0a27.11,27.11,0,0,0-27.11,27.11" transform="translate(-93.35 -63.78)"/></g><g class="k"><path class="j" d="M343.47,305.95a27,27,0,0,0,6.81,17.92h0c0-.21,0-.42,0-.64h0c0-11.23,8.8-20.34,19.66-20.34h0c10.85,0,19.65,9.11,19.65,20.34h0a20.78,20.78,0,0,1-.11,2.16h0a27,27,0,0,0,8.25-19.45h0a27.1,27.1,0,0,0-27.11-27.11h0a27.11,27.11,0,0,0-27.11,27.11" transform="translate(-93.35 -63.78)"/></g><g class="l"><g class="m"><path class="n" d="M240.55,208.41c-1.6,8.1-11.79,10.64-11.79,10.64s-8.46-6.24-6.86-14.34c-2,10.12,5.38,21.75,5.38,21.75s11.27-7.94,13.27-18.06" transform="translate(-93.35 -63.78)"/><path class="n" d="M260.71,212.47c-1.6,8.1-11.79,10.64-11.79,10.64s-8.46-6.24-6.86-14.34c-2,10.13,5.38,21.76,5.38,21.76s11.26-7.94,13.27-18.06" transform="translate(-93.35 -63.78)"/><path class="n" d="M246.46,230.81c-1.6,8.1-11.79,10.64-11.79,10.64s-8.46-6.24-6.86-14.34c-2,10.12,5.38,21.76,5.38,21.76s11.27-7.94,13.27-18.06" transform="translate(-93.35 -63.78)"/><path class="n" d="M266.62,234.86c-1.6,8.1-11.79,10.64-11.79,10.64s-8.46-6.24-6.86-14.34c-2,10.13,5.38,21.76,5.38,21.76s11.27-7.94,13.27-18.06" transform="translate(-93.35 -63.78)"/><path class="n" d="M252.45,253.51c-1.6,8.1-11.79,10.64-11.79,10.64s-8.46-6.24-6.86-14.34c-2,10.13,5.38,21.76,5.38,21.76s11.27-7.94,13.27-18.06" transform="translate(-93.35 -63.78)"/><path class="n" d="M280.8,216.51c-1.6,8.1-11.79,10.64-11.79,10.64s-8.46-6.24-6.86-14.34c-2,10.12,5.38,21.76,5.38,21.76s11.27-7.94,13.27-18.06" transform="translate(-93.35 -63.78)"/></g></g><g class="o"><g class="m"><path class="n" d="M420.22,208.41c1.6,8.1,11.79,10.64,11.79,10.64s8.46-6.24,6.86-14.34c2,10.12-5.38,21.75-5.38,21.75s-11.27-7.94-13.27-18.06" transform="translate(-93.35 -63.78)"/><path class="n" d="M400.06,212.47c1.61,8.1,11.79,10.64,11.79,10.64s8.46-6.24,6.86-14.34c2,10.13-5.38,21.76-5.38,21.76s-11.27-7.94-13.27-18.06" transform="translate(-93.35 -63.78)"/><path class="n" d="M414.31,230.81c1.61,8.1,11.79,10.64,11.79,10.64s8.46-6.24,6.86-14.34c2,10.12-5.38,21.76-5.38,21.76s-11.27-7.94-13.27-18.06" transform="translate(-93.35 -63.78)"/><path class="n" d="M394.15,234.86c1.61,8.1,11.79,10.64,11.79,10.64s8.46-6.24,6.86-14.34c2,10.13-5.38,21.76-5.38,21.76s-11.26-7.94-13.27-18.06" transform="translate(-93.35 -63.78)"/><path class="n" d="M408.32,253.51c1.61,8.1,11.79,10.64,11.79,10.64s8.46-6.24,6.86-14.34c2,10.13-5.38,21.76-5.38,21.76s-11.26-7.94-13.27-18.06" transform="translate(-93.35 -63.78)"/><path class="n" d="M380,216.51c1.61,8.1,11.79,10.64,11.79,10.64s8.46-6.24,6.86-14.34c2,10.12-5.38,21.76-5.38,21.76S382,226.62,380,216.51" transform="translate(-93.35 -63.78)"/></g></g><path class="p" d="M323.14,155.89a46.29,46.29,0,1,1-46.29-46.29,46.29,46.29,0,0,1,46.29,46.29" transform="translate(-93.35 -63.78)"/><path class="q" d="M309,160.42a22.58,22.58,0,1,1-22.58-22.59A22.58,22.58,0,0,1,309,160.42" transform="translate(-93.35 -63.78)"/><path class="n" d="M300.91,160.42A14.45,14.45,0,1,1,286.45,146a14.45,14.45,0,0,1,14.45,14.46" transform="translate(-93.35 -63.78)"/><path class="p" d="M284.38,155.33a4.33,4.33,0,1,1-4.33-4.33,4.33,4.33,0,0,1,4.33,4.33" transform="translate(-93.35 -63.78)"/><path class="p" d="M429.58,155.89a46.3,46.3,0,1,1-46.3-46.29,46.3,46.3,0,0,1,46.3,46.29" transform="translate(-93.35 -63.78)"/><path class="q" d="M415.46,160.42a22.58,22.58,0,1,1-22.58-22.59,22.58,22.58,0,0,1,22.58,22.59" transform="translate(-93.35 -63.78)"/><path class="n" d="M407.33,160.42A14.45,14.45,0,1,1,392.89,146a14.45,14.45,0,0,1,14.45,14.46" transform="translate(-93.35 -63.78)"/><path class="p" d="M390.81,155.33a4.33,4.33,0,1,1-4.34-4.33,4.33,4.33,0,0,1,4.34,4.33" transform="translate(-93.35 -63.78)"/><g class="r"><path class="j" d="M303.68,186.94c0,17.88,26.16,42.15,26.16,59.29h0c0-17.13,26.16-41.41,26.16-59.29h0a26.13,26.13,0,0,0-26.16-26h0a26.13,26.13,0,0,0-26.16,26" transform="translate(-93.35 -63.78)"/></g><g class="b"><rect class="s" y="509.13" width="134.52" height="220.09"/></g><path class="s" d="M269.34,480.13h39.41V617.85q16.31-18.8,30.47-27.29t34.54-8.49q23.78,0,41.11,18.23a61.09,61.09,0,0,1,17.33,43.6V774.14H392.79V655q0-17.67-8.95-28.31T360.17,616q-21.29,0-36.35,16.08t-15.06,39V774.14H269.34Z" transform="translate(-93.35 -63.78)"/><path class="s" d="M793.54,480.13h39.41V669.26l77.22-82h51l-80.61,86.3,81.51,100.57H913.29l-80.34-98.76v98.76H793.54Z" transform="translate(-93.35 -63.78)"/><g class="d"><path class="s" d="M789.34,717.06v45.07q-30.13,17.22-58.44,17.21-38.73,0-67.84-29.11T634,682.86q0-43.49,29-72.14t72.71-28.65q26,0,53.68,13.59v43.94q-29.68-19-56.17-19-24.46,0-42.81,17.21T672,678.1q0,26.05,17.21,43.83t42.13,17.78Q756.72,739.71,789.34,717.06Z" transform="translate(-93.35 -63.78)"/></g><g class="e"><path class="s" d="M668.93,688.29H509.47q5.21,28.77,23.67,42t40.2,13.25q33.52,0,56.17-27.86l28.77,21.74q-32.4,41.91-86.75,41.9-41.68,0-69.76-28.54t-28.09-70.9q0-39.63,28.43-68.74t69.42-29.11q40.31,0,69.08,29.56T668.93,688.29ZM513.55,656.81H627.7q-19-38.5-56.17-38.51Q531,618.3,513.55,656.81Z" transform="translate(-93.35 -63.78)"/></g><path class="s" d="M269.34,298.38h39.41V572.91H269.34V448.56q-29.26,41.91-71.45,41.9-36.29,0-63.06-29.22t-26.76-69.31q0-39.86,26.65-69.31t62.49-29.45q21.32,0,41.28,12.12a85.29,85.29,0,0,1,30.85,31.6Zm5,92.64q0-24.91-18.83-43t-45.16-18.12q-24.73,0-42.77,18.57t-18,43.94q0,24.92,18.61,43.38t44,18.46q26.09,0,44.13-18.35T274.33,391Z" transform="translate(-93.35 -63.78)"/><path class="s" d="M350.23,298.38h39.41V403.7q0,48.7,42.81,48.7,19,0,30.13-13t11.1-35.67V298.38h39V410q0,35.11-22.88,57.76t-58.44,22.65q-36.24,0-58.67-22.65t-22.42-59.12Z" transform="translate(-93.35 -63.78)"/><path class="s" d="M553.82,298.24h39V485.11h-39Z" transform="translate(-93.35 -63.78)"/><path class="t" d="M542.95,236.86A28.77,28.77,0,0,1,552,215.68a29.58,29.58,0,0,1,21.52-8.95,30.13,30.13,0,0,1,0,60.25A29.76,29.76,0,0,1,552,258.15,28.65,28.65,0,0,1,542.95,236.86Z" transform="translate(-93.35 -63.78)"/><path class="s" d="M793.54,191.1h39.41V380.24l77.22-82h51l-80.61,86.3,81.51,100.57H913.29l-80.34-98.76v98.76H793.54Z" transform="translate(-93.35 -63.78)"/><g class="g"><path class="s" d="M789.34,428V473.1q-30.13,17.22-58.44,17.21-38.73,0-67.84-29.11T634,393.83q0-43.49,29-72.14T735.66,293q26,0,53.68,13.59v43.94q-29.68-19-56.17-19-24.46,0-42.81,17.21T672,389.07q0,26.05,17.21,43.83t42.13,17.78Q756.72,450.68,789.34,428Z" transform="translate(-93.35 -63.78)"/></g><g class="h"><path class="t" d="M375.71,83.28a111,111,0,0,0-45.21-9.61h0a110.89,110.89,0,0,0-45.56,9.76h0c-16.68-25.85-46.75-18.76-46.75-18.76h0c15.88,13.32,11,36.46,7.45,47.6h0a127.59,127.59,0,0,0-32.29,85.47h0c0,26.38,16.94,56.35,20.33,96.51h0l21.45-18.59s25.68,17.39,75.36,17.39h0c49.69,0,75.37-17.39,75.37-17.39h0l21.46,18.59c3.39-40.16,20.32-70.13,20.32-96.51h0a127.53,127.53,0,0,0-33-86.24h0c-3.56-11.41-7.83-33.82,7.69-46.83h0a45.08,45.08,0,0,0-9.39-.89h0c-10.2,0-26.48,2.94-37.25,19.5" transform="translate(-93.35 -63.78)"/></g><g class="i"><path class="u" d="M261.23,305.95a27,27,0,0,0,8.25,19.45h0c-.07-.71-.11-1.43-.11-2.16h0c0-11.23,8.8-20.34,19.66-20.34h0c10.85,0,19.65,9.11,19.65,20.34h0c0,.21,0,.42,0,.64h0a27,27,0,0,0,6.81-17.92h0a27.1,27.1,0,0,0-27.11-27.11h0a27.11,27.11,0,0,0-27.11,27.11" transform="translate(-93.35 -63.78)"/></g><g class="k"><path class="u" d="M343.47,305.95a27,27,0,0,0,6.81,17.92h0c0-.21,0-.42,0-.64h0c0-11.23,8.8-20.34,19.66-20.34h0c10.85,0,19.65,9.11,19.65,20.34h0a20.78,20.78,0,0,1-.11,2.16h0a27,27,0,0,0,8.25-19.45h0a27.1,27.1,0,0,0-27.11-27.11h0a27.11,27.11,0,0,0-27.11,27.11" transform="translate(-93.35 -63.78)"/></g><g class="l"><g class="m"><path class="n" d="M240.55,208.41c-1.6,8.1-11.79,10.64-11.79,10.64s-8.46-6.24-6.86-14.34c-2,10.12,5.38,21.75,5.38,21.75s11.27-7.94,13.27-18.06" transform="translate(-93.35 -63.78)"/><path class="n" d="M260.71,212.47c-1.6,8.1-11.79,10.64-11.79,10.64s-8.46-6.24-6.86-14.34c-2,10.13,5.38,21.76,5.38,21.76s11.26-7.94,13.27-18.06" transform="translate(-93.35 -63.78)"/><path class="n" d="M246.46,230.81c-1.6,8.1-11.79,10.64-11.79,10.64s-8.46-6.24-6.86-14.34c-2,10.12,5.38,21.76,5.38,21.76s11.27-7.94,13.27-18.06" transform="translate(-93.35 -63.78)"/><path class="n" d="M266.62,234.86c-1.6,8.1-11.79,10.64-11.79,10.64s-8.46-6.24-6.86-14.34c-2,10.13,5.38,21.76,5.38,21.76s11.27-7.94,13.27-18.06" transform="translate(-93.35 -63.78)"/><path class="n" d="M252.45,253.51c-1.6,8.1-11.79,10.64-11.79,10.64s-8.46-6.24-6.86-14.34c-2,10.13,5.38,21.76,5.38,21.76s11.27-7.94,13.27-18.06" transform="translate(-93.35 -63.78)"/><path class="n" d="M280.8,216.51c-1.6,8.1-11.79,10.64-11.79,10.64s-8.46-6.24-6.86-14.34c-2,10.12,5.38,21.76,5.38,21.76s11.27-7.94,13.27-18.06" transform="translate(-93.35 -63.78)"/></g></g><g class="o"><g class="m"><path class="n" d="M420.22,208.41c1.6,8.1,11.79,10.64,11.79,10.64s8.46-6.24,6.86-14.34c2,10.12-5.38,21.75-5.38,21.75s-11.27-7.94-13.27-18.06" transform="translate(-93.35 -63.78)"/><path class="n" d="M400.06,212.47c1.61,8.1,11.79,10.64,11.79,10.64s8.46-6.24,6.86-14.34c2,10.13-5.38,21.76-5.38,21.76s-11.27-7.94-13.27-18.06" transform="translate(-93.35 -63.78)"/><path class="n" d="M414.31,230.81c1.61,8.1,11.79,10.64,11.79,10.64s8.46-6.24,6.86-14.34c2,10.12-5.38,21.76-5.38,21.76s-11.27-7.94-13.27-18.06" transform="translate(-93.35 -63.78)"/><path class="n" d="M394.15,234.86c1.61,8.1,11.79,10.64,11.79,10.64s8.46-6.24,6.86-14.34c2,10.13-5.38,21.76-5.38,21.76s-11.26-7.94-13.27-18.06" transform="translate(-93.35 -63.78)"/><path class="n" d="M408.32,253.51c1.61,8.1,11.79,10.64,11.79,10.64s8.46-6.24,6.86-14.34c2,10.13-5.38,21.76-5.38,21.76s-11.26-7.94-13.27-18.06" transform="translate(-93.35 -63.78)"/><path class="n" d="M380,216.51c1.61,8.1,11.79,10.64,11.79,10.64s8.46-6.24,6.86-14.34c2,10.12-5.38,21.76-5.38,21.76S382,226.62,380,216.51" transform="translate(-93.35 -63.78)"/></g></g><path class="p" d="M323.14,155.89a46.29,46.29,0,1,1-46.29-46.29,46.29,46.29,0,0,1,46.29,46.29" transform="translate(-93.35 -63.78)"/><path class="u" d="M309,160.42a22.58,22.58,0,1,1-22.58-22.59A22.58,22.58,0,0,1,309,160.42" transform="translate(-93.35 -63.78)"/><path class="n" d="M300.91,160.42A14.45,14.45,0,1,1,286.45,146a14.45,14.45,0,0,1,14.45,14.46" transform="translate(-93.35 -63.78)"/><path class="p" d="M284.38,155.33a4.33,4.33,0,1,1-4.33-4.33,4.33,4.33,0,0,1,4.33,4.33" transform="translate(-93.35 -63.78)"/><path class="p" d="M429.58,155.89a46.3,46.3,0,1,1-46.3-46.29,46.3,46.3,0,0,1,46.3,46.29" transform="translate(-93.35 -63.78)"/><path class="u" d="M415.46,160.42a22.58,22.58,0,1,1-22.58-22.59,22.58,22.58,0,0,1,22.58,22.59" transform="translate(-93.35 -63.78)"/><path class="n" d="M407.33,160.42A14.45,14.45,0,1,1,392.89,146a14.45,14.45,0,0,1,14.45,14.46" transform="translate(-93.35 -63.78)"/><path class="p" d="M390.81,155.33a4.33,4.33,0,1,1-4.34-4.33,4.33,4.33,0,0,1,4.34,4.33" transform="translate(-93.35 -63.78)"/><g class="r"><path class="u" d="M303.68,186.94c0,17.88,26.16,42.15,26.16,59.29h0c0-17.13,26.16-41.41,26.16-59.29h0a26.13,26.13,0,0,0-26.16-26h0a26.13,26.13,0,0,0-26.16,26" transform="translate(-93.35 -63.78)"/></g></svg>